<?xml version="1.0" encoding="UTF-8" standalone="no"?>
<!-- Created with Inkscape (http://www.inkscape.org/) -->

<svg
   xmlns:dc="http://purl.org/dc/elements/1.1/"
   xmlns:cc="http://creativecommons.org/ns#"
   xmlns:rdf="http://www.w3.org/1999/02/22-rdf-syntax-ns#"
   xmlns:svg="http://www.w3.org/2000/svg"
   xmlns="http://www.w3.org/2000/svg"
   xmlns:xlink="http://www.w3.org/1999/xlink"
   xmlns:sodipodi="http://sodipodi.sourceforge.net/DTD/sodipodi-0.dtd"
   xmlns:inkscape="http://www.inkscape.org/namespaces/inkscape"
   width="210mm"
   height="297mm"
   viewBox="0 0 210 297"
   version="1.1"
   id="svg8"
   inkscape:export-filename="C:\Users\zerr0\Desktop\bitmap2.png"
   inkscape:export-xdpi="66.260002"
   inkscape:export-ydpi="66.260002"
   inkscape:version="0.92.3 (2405546, 2018-03-11)"
   sodipodi:docname="ab.svg">
  <defs
     id="defs2">
    <linearGradient
       inkscape:collect="always"
       id="linearGradient1258">
      <stop
         id="stop1256"
         offset="0"
         style="stop-color:#f60;stop-opacity:0;" />
      <stop
         id="stop1254"
         offset="1"
         style="stop-color:#f60;stop-opacity:1;" />
    </linearGradient>
    <linearGradient
       inkscape:collect="always"
       id="linearGradient1250">
      <stop
         style="stop-color:#ff2a2a;stop-opacity:1;"
         offset="0"
         id="stop1246" />
      <stop
         style="stop-color:#ff2a2a;stop-opacity:0;"
         offset="1"
         id="stop1248" />
    </linearGradient>
    <linearGradient
       inkscape:collect="always"
       id="linearGradient1139">
      <stop
         id="stop1137"
         offset="0"
         style="stop-color:#ff2a2a;stop-opacity:0;" />
      <stop
         id="stop1135"
         offset="1"
         style="stop-color:#ff2a2a;stop-opacity:1;" />
    </linearGradient>
    <linearGradient
       inkscape:collect="always"
       id="linearGradient850">
      <stop
         style="stop-color:#f60;stop-opacity:1;"
         offset="0"
         id="stop846" />
      <stop
         style="stop-color:#f60;stop-opacity:0;"
         offset="1"
         id="stop848" />
    </linearGradient>
    <linearGradient
       inkscape:collect="always"
       xlink:href="#linearGradient850"
       id="linearGradient986"
       x1="-149.50195"
       y1="344.80356"
       x2="51.962891"
       y2="344.80356"
       gradientUnits="userSpaceOnUse" />
    <linearGradient
       inkscape:collect="always"
       xlink:href="#linearGradient1139"
       id="linearGradient1141"
       x1="-149.50195"
       y1="344.80356"
       x2="51.962891"
       y2="344.80356"
       gradientUnits="userSpaceOnUse" />
    <linearGradient
       inkscape:collect="always"
       xlink:href="#linearGradient1139"
       id="linearGradient1149"
       gradientUnits="userSpaceOnUse"
       x1="-149.50195"
       y1="344.80356"
       x2="51.962891"
       y2="344.80356" />
    <linearGradient
       inkscape:collect="always"
       xlink:href="#linearGradient850"
       id="linearGradient1155"
       gradientUnits="userSpaceOnUse"
       x1="-149.50195"
       y1="344.80356"
       x2="51.962891"
       y2="344.80356" />
    <linearGradient
       inkscape:collect="always"
       xlink:href="#linearGradient1139"
       id="linearGradient1175"
       gradientUnits="userSpaceOnUse"
       x1="-149.50195"
       y1="344.80356"
       x2="51.962891"
       y2="344.80356"
       gradientTransform="translate(12)" />
    <linearGradient
       inkscape:collect="always"
       xlink:href="#linearGradient850"
       id="linearGradient1177"
       gradientUnits="userSpaceOnUse"
       x1="-149.50195"
       y1="344.80356"
       x2="51.962891"
       y2="344.80356"
       gradientTransform="translate(12)" />
    <linearGradient
       inkscape:collect="always"
       xlink:href="#linearGradient1250"
       id="linearGradient1252"
       x1="65.06101"
       y1="188.70982"
       x2="125.06101"
       y2="188.70982"
       gradientUnits="userSpaceOnUse"
       gradientTransform="translate(-38.518681,-15.506406)" />
    <linearGradient
       inkscape:collect="always"
       xlink:href="#linearGradient1258"
       id="linearGradient1260"
       x1="91.897322"
       y1="121.99702"
       x2="151.89733"
       y2="121.99702"
       gradientUnits="userSpaceOnUse"
       gradientTransform="translate(-76.929615,48.352)" />
    <linearGradient
       inkscape:collect="always"
       xlink:href="#linearGradient1250"
       id="linearGradient1325"
       gradientUnits="userSpaceOnUse"
       gradientTransform="translate(19.209317,-44.237212)"
       x1="65.06101"
       y1="188.70982"
       x2="125.06101"
       y2="188.70982" />
    <linearGradient
       inkscape:collect="always"
       xlink:href="#linearGradient1258"
       id="linearGradient1358"
       x1="29.055998"
       y1="228.02232"
       x2="89.056"
       y2="228.02232"
       gradientUnits="userSpaceOnUse"
       gradientTransform="translate(55.214335,-83.282359)" />
    <linearGradient
       inkscape:collect="always"
       xlink:href="#linearGradient850"
       id="linearGradient1375"
       gradientUnits="userSpaceOnUse"
       gradientTransform="translate(12)"
       x1="-149.50195"
       y1="344.80356"
       x2="51.962891"
       y2="344.80356" />
    <linearGradient
       inkscape:collect="always"
       xlink:href="#linearGradient1139"
       id="linearGradient1377"
       gradientUnits="userSpaceOnUse"
       gradientTransform="translate(11.999999)"
       x1="-149.50195"
       y1="344.80356"
       x2="51.962891"
       y2="344.80356" />
  </defs>
  <sodipodi:namedview
     id="base"
     pagecolor="#ffffff"
     bordercolor="#666666"
     borderopacity="1.0"
     inkscape:pageopacity="0.0"
     inkscape:pageshadow="2"
     inkscape:zoom="0.98994949"
     inkscape:cx="373.47517"
     inkscape:cy="537.29134"
     inkscape:document-units="mm"
     inkscape:current-layer="layer1"
     showgrid="false"
     inkscape:window-width="1920"
     inkscape:window-height="1051"
     inkscape:window-x="-9"
     inkscape:window-y="-9"
     inkscape:window-maximized="1" />
  <metadata
     id="metadata5">
    <rdf:RDF>
      <cc:Work
         rdf:about="">
        <dc:format>image/svg+xml</dc:format>
        <dc:type
           rdf:resource="http://purl.org/dc/dcmitype/StillImage" />
        <dc:title></dc:title>
      </cc:Work>
    </rdf:RDF>
  </metadata>
  <g
     inkscape:label="Layer 1"
     inkscape:groupmode="layer"
     id="layer1">
    <g
       transform="matrix(0.26458333,0,0,0.26458333,24.666299,19.624374)"
       style="font-style:normal;font-weight:normal;font-size:192px;line-height:25px;font-family:sans-serif;letter-spacing:0px;word-spacing:0px;fill:black;fill-opacity:1;stroke:none"
       id="flowRoot886" />
    <circle
       style="opacity:1;vector-effect:none;fill:white;fill-opacity:1;fill-rule:nonzero;stroke:none;stroke-width:1.16666663;stroke-linecap:butt;stroke-linejoin:miter;stroke-miterlimit:4;stroke-dasharray:none;stroke-dashoffset:0;stroke-opacity:1"
       id="path1203"
       cx="105"
       cy="148.5"
       r="35" />
    <g
       id="g1394"
       transform="translate(74.402664,-0.3264903)">
      <g
         transform="matrix(1.1666666,0,0,1.1614914,-103.58667,-19.466562)"
         id="g1305">
        <circle
           style="opacity:1;vector-effect:none;fill:url(#linearGradient1260);fill-opacity:1;fill-rule:nonzero;stroke:none;stroke-width:1;stroke-linecap:butt;stroke-linejoin:miter;stroke-miterlimit:4;stroke-dasharray:none;stroke-dashoffset:0;stroke-opacity:1"
           id="path1203-5-8"
           cx="44.967701"
           cy="170.34903"
           r="0" />
        <g
           id="g1362"
           transform="translate(0.74453658,0.28763615)">
          <circle
             r="30.000002"
             cy="144.47263"
             cx="114.27033"
             id="path1203-5"
             style="opacity:1;vector-effect:none;fill:url(#linearGradient1325);fill-opacity:1;fill-rule:nonzero;stroke:none;stroke-width:1;stroke-linecap:butt;stroke-linejoin:miter;stroke-miterlimit:4;stroke-dasharray:none;stroke-dashoffset:0;stroke-opacity:1" />
          <circle
             r="30.000002"
             cy="144.73996"
             cx="114.27033"
             id="path1203-5-4"
             style="opacity:1;vector-effect:none;fill:url(#linearGradient1358);fill-opacity:1;fill-rule:nonzero;stroke:none;stroke-width:1;stroke-linecap:butt;stroke-linejoin:miter;stroke-miterlimit:4;stroke-dasharray:none;stroke-dashoffset:0;stroke-opacity:1" />
        </g>
      </g>
      <g
         transform="translate(-43.508312,63.251806)"
         id="g1373">
        <g
           aria-label="AB"
           transform="matrix(0.26458333,0,0,0.26458333,84.553122,-4.930344)"
           style="font-style:normal;font-weight:normal;font-size:192px;line-height:25px;font-family:sans-serif;letter-spacing:0px;word-spacing:0px;fill:url(#linearGradient986);fill-opacity:1;stroke:none"
           id="flowRoot878-2">
          <path
             d="m -57.326172,416.48325 -8.203125,-36.03516 h -37.207033 l -8.20312,36.03516 h -26.5625 l 35.35156,-143.35938 h 36.035156 l 35.449218,143.35938 z m -13.183594,-59.57031 -7.617187,-33.20313 q -0.683594,-3.02734 -3.125,-15.13672 -2.34375,-12.20703 -2.832031,-16.30859 -1.269532,8.39844 -3.222657,18.55469 -1.953129,10.05859 -10.156249,46.09375 z"
             style="font-style:normal;font-variant:normal;font-weight:bold;font-stretch:condensed;font-size:200px;font-family:'Open Sans Condensed';-inkscape-font-specification:'Open Sans Condensed, Bold Condensed';fill:url(#linearGradient1375);fill-opacity:1"
             id="path1159"
             inkscape:connector-curvature="0" />
          <path
             d="M -29.873047,273.70981 H 6.5527344 q 22.2656246,0 32.4218746,8.69141 10.15625,8.59375 10.15625,27.4414 0,12.40235 -5.371093,20.80078 -5.371094,8.30079 -14.648438,10.0586 v 0.97656 q 12.109375,3.02734 17.480469,11.32813 5.371094,8.30078 5.371094,22.07031 0,19.43359 -10.449219,30.46875 -10.351563,10.9375 -28.417969,10.9375 h -42.96875 z m 25.0000001,57.42188 H 7.3339844 q 8.3984376,0 11.8164066,-4.49219 3.417968,-4.49219 3.417968,-13.37891 0,-8.88672 -3.90625,-12.69531 -3.90625,-3.90625 -12.3046871,-3.90625 H -4.8730469 Z m 0,22.16796 v 39.94141 H 8.5058594 q 8.3007816,0 12.3046876,-5.07812 4.101562,-5.07813 4.101562,-15.72266 0,-19.14063 -16.7968746,-19.14063 z"
             style="font-style:normal;font-variant:normal;font-weight:bold;font-stretch:condensed;font-size:200px;font-family:'Open Sans Condensed';-inkscape-font-specification:'Open Sans Condensed, Bold Condensed';fill:url(#linearGradient1155);fill-opacity:1"
             id="path1161"
             inkscape:connector-curvature="0" />
        </g>
        <g
           aria-label="AB"
           transform="matrix(0.26458333,0,0,0.26458333,84.553122,-4.930344)"
           style="font-style:normal;font-weight:normal;font-size:192px;line-height:25px;font-family:sans-serif;letter-spacing:0px;word-spacing:0px;fill:url(#linearGradient1141);fill-opacity:1;stroke:none"
           id="flowRoot878-2-8">
          <path
             d="m -57.326173,416.48325 -8.203125,-36.03516 h -37.207032 l -8.20312,36.03516 h -26.5625 l 35.35156,-143.35938 h 36.035155 l 35.449218,143.35938 z m -13.183594,-59.57031 -7.617187,-33.20313 q -0.683594,-3.02734 -3.125,-15.13672 -2.34375,-12.20703 -2.832031,-16.30859 -1.269532,8.39844 -3.222657,18.55469 -1.953129,10.05859 -10.156249,46.09375 z"
             style="font-style:normal;font-variant:normal;font-weight:bold;font-stretch:condensed;font-size:200px;font-family:'Open Sans Condensed';-inkscape-font-specification:'Open Sans Condensed, Bold Condensed';fill:url(#linearGradient1377);fill-opacity:1"
             id="path1165"
             inkscape:connector-curvature="0" />
          <path
             d="M -29.873047,273.70981 H 6.5527344 q 22.2656246,0 32.4218746,8.69141 10.15625,8.59375 10.15625,27.4414 0,12.40235 -5.371093,20.80078 -5.371094,8.30079 -14.648438,10.0586 v 0.97656 q 12.109375,3.02734 17.480469,11.32813 5.371094,8.30078 5.371094,22.07031 0,19.43359 -10.449219,30.46875 -10.351563,10.9375 -28.417969,10.9375 h -42.96875 z m 25.0000001,57.42188 H 7.3339844 q 8.3984376,0 11.8164066,-4.49219 3.417968,-4.49219 3.417968,-13.37891 0,-8.88672 -3.90625,-12.69531 -3.90625,-3.90625 -12.3046871,-3.90625 H -4.8730469 Z m 0,22.16796 v 39.94141 H 8.5058594 q 8.3007816,0 12.3046876,-5.07812 4.101562,-5.07813 4.101562,-15.72266 0,-19.14063 -16.7968746,-19.14063 z"
             style="font-style:normal;font-variant:normal;font-weight:bold;font-stretch:condensed;font-size:200px;font-family:'Open Sans Condensed';-inkscape-font-specification:'Open Sans Condensed, Bold Condensed';fill:url(#linearGradient1149);fill-opacity:1"
             id="path1167"
             inkscape:connector-curvature="0" />
        </g>
        <g
           aria-label="AB"
           transform="matrix(0.26458333,0,0,0.26458333,84.553122,-7.0470108)"
           style="font-style:normal;font-weight:normal;font-size:192px;line-height:25px;font-family:sans-serif;letter-spacing:0px;word-spacing:0px;fill:#1a1a1a;fill-opacity:1;stroke:none"
           id="flowRoot878">
          <path
             d="m -56.533203,416.48325 -8.203125,-36.03516 h -37.207032 l -8.20312,36.03516 h -26.5625 l 35.35156,-143.35938 h 36.035155 l 35.449218,143.35938 z m -13.183594,-59.57031 -7.617187,-33.20313 q -0.683594,-3.02734 -3.125,-15.13672 -2.34375,-12.20703 -2.832031,-16.30859 -1.269532,8.39844 -3.222657,18.55469 -1.953129,10.05859 -10.156249,46.09375 z"
             style="font-style:normal;font-variant:normal;font-weight:bold;font-stretch:condensed;font-size:200px;font-family:'Open Sans Condensed';-inkscape-font-specification:'Open Sans Condensed, Bold Condensed';fill:#1a1a1a"
             id="path1170"
             inkscape:connector-curvature="0" />
          <path
             d="M -29.873047,273.70981 H 6.5527344 q 22.2656246,0 32.4218746,8.69141 10.15625,8.59375 10.15625,27.4414 0,12.40235 -5.371093,20.80078 -5.371094,8.30079 -14.648438,10.0586 v 0.97656 q 12.109375,3.02734 17.480469,11.32813 5.371094,8.30078 5.371094,22.07031 0,19.43359 -10.449219,30.46875 -10.351563,10.9375 -28.417969,10.9375 h -42.96875 z m 25.0000001,57.42188 H 7.3339844 q 8.3984376,0 11.8164066,-4.49219 3.417968,-4.49219 3.417968,-13.37891 0,-8.88672 -3.90625,-12.69531 -3.90625,-3.90625 -12.3046871,-3.90625 H -4.8730469 Z m 0,22.16796 v 39.94141 H 8.5058594 q 8.3007816,0 12.3046876,-5.07812 4.101562,-5.07813 4.101562,-15.72266 0,-19.14063 -16.7968746,-19.14063 z"
             style="font-style:normal;font-variant:normal;font-weight:bold;font-stretch:condensed;font-size:200px;font-family:'Open Sans Condensed';-inkscape-font-specification:'Open Sans Condensed, Bold Condensed';fill:#1a1a1a"
             id="path1172"
             inkscape:connector-curvature="0" />
        </g>
      </g>
    </g>
  </g>
</svg>
